solid Shape0
facet normal 0.000000E+000 -1.000000E+000 0.000000E+000
outer loop
vertex 1.041179E+001 -1.290000E+001 1.021042E+001
vertex 1.091167E+001 -1.290000E+001 1.207598E+001
vertex 0.000000E+000 -1.290000E+001 1.400000E+001
endloop
endfacet
facet normal 0.000000E+000 -1.000000E+000 0.000000E+000
outer loop
vertex 1.091167E+001 -1.290000E+001 1.207598E+001
vertex 1.108000E+001 -1.290000E+001 1.400000E+001
vertex 0.000000E+000 -1.290000E+001 1.400000E+001
endloop
endfacet
facet normal 0.000000E+000 -1.000000E+000 0.000000E+000
outer loop
vertex 0.000000E+000 -1.290000E+001 1.400000E+001
vertex 1.108000E+001 -1.290000E+001 1.400000E+001
vertex 1.091167E+001 -1.290000E+001 1.592402E+001
endloop
endfacet
facet normal 0.000000E+000 -1.000000E+000 0.000000E+000
outer loop
vertex 7.122087E+000 -1.290000E+001 5.512228E+000
vertex 8.487772E+000 -1.290000E+001 6.877913E+000
vertex 0.000000E+000 -1.290000E+001 1.400000E+001
endloop
endfacet
facet normal 0.000000E+000 -1.000000E+000 0.000000E+000
outer loop
vertex 8.487772E+000 -1.290000E+001 6.877913E+000
vertex 9.595561E+000 -1.290000E+001 8.460000E+000
vertex 0.000000E+000 -1.290000E+001 1.400000E+001
endloop
endfacet
facet normal 0.000000E+000 -1.000000E+000 0.000000E+000
outer loop
vertex 0.000000E+000 -1.290000E+001 1.400000E+001
vertex 9.595561E+000 -1.290000E+001 8.460000E+000
vertex 1.041179E+001 -1.290000E+001 1.021042E+001
endloop
endfacet
facet normal 0.000000E+000 -1.000000E+000 0.000000E+000
outer loop
vertex 1.924022E+000 -1.290000E+001 3.088330E+000
vertex 3.789583E+000 -1.290000E+001 3.588206E+000
vertex 0.000000E+000 -1.290000E+001 1.400000E+001
endloop
endfacet
facet normal 0.000000E+000 -1.000000E+000 0.000000E+000
outer loop
vertex 3.789583E+000 -1.290000E+001 3.588206E+000
vertex 5.540000E+000 -1.290000E+001 4.404439E+000
vertex 0.000000E+000 -1.290000E+001 1.400000E+001
endloop
endfacet
facet normal 0.000000E+000 -1.000000E+000 0.000000E+000
outer loop
vertex 0.000000E+000 -1.290000E+001 1.400000E+001
vertex 5.540000E+000 -1.290000E+001 4.404439E+000
vertex 7.122087E+000 -1.290000E+001 5.512228E+000
endloop
endfacet
facet normal 0.000000E+000 -1.000000E+000 0.000000E+000
outer loop
vertex -3.789583E+000 -1.290000E+001 3.588206E+000
vertex -1.924022E+000 -1.290000E+001 3.088330E+000
vertex 0.000000E+000 -1.290000E+001 1.400000E+001
endloop
endfacet
facet normal 0.000000E+000 -1.000000E+000 0.000000E+000
outer loop
vertex -1.924022E+000 -1.290000E+001 3.088330E+000
vertex 0.000000E+000 -1.290000E+001 2.920000E+000
vertex 0.000000E+000 -1.290000E+001 1.400000E+001
endloop
endfacet
facet normal 0.000000E+000 -1.000000E+000 0.000000E+000
outer loop
vertex 0.000000E+000 -1.290000E+001 1.400000E+001
vertex 0.000000E+000 -1.290000E+001 2.920000E+000
vertex 1.924022E+000 -1.290000E+001 3.088330E+000
endloop
endfacet
facet normal 0.000000E+000 -1.000000E+000 0.000000E+000
outer loop
vertex -8.487772E+000 -1.290000E+001 6.877913E+000
vertex -7.122087E+000 -1.290000E+001 5.512228E+000
vertex 0.000000E+000 -1.290000E+001 1.400000E+001
endloop
endfacet
facet normal 0.000000E+000 -1.000000E+000 0.000000E+000
outer loop
vertex -7.122087E+000 -1.290000E+001 5.512228E+000
vertex -5.540000E+000 -1.290000E+001 4.404439E+000
vertex 0.000000E+000 -1.290000E+001 1.400000E+001
endloop
endfacet
facet normal 0.000000E+000 -1.000000E+000 0.000000E+000
outer loop
vertex 0.000000E+000 -1.290000E+001 1.400000E+001
vertex -5.540000E+000 -1.290000E+001 4.404439E+000
vertex -3.789583E+000 -1.290000E+001 3.588206E+000
endloop
endfacet
facet normal 0.000000E+000 -1.000000E+000 0.000000E+000
outer loop
vertex -1.091167E+001 -1.290000E+001 1.207598E+001
vertex -1.041179E+001 -1.290000E+001 1.021042E+001
vertex 0.000000E+000 -1.290000E+001 1.400000E+001
endloop
endfacet
facet normal 0.000000E+000 -1.000000E+000 0.000000E+000
outer loop
vertex -1.041179E+001 -1.290000E+001 1.021042E+001
vertex -9.595561E+000 -1.290000E+001 8.460000E+000
vertex 0.000000E+000 -1.290000E+001 1.400000E+001
endloop
endfacet
facet normal 0.000000E+000 -1.000000E+000 0.000000E+000
outer loop
vertex 0.000000E+000 -1.290000E+001 1.400000E+001
vertex -9.595561E+000 -1.290000E+001 8.460000E+000
vertex -8.487772E+000 -1.290000E+001 6.877913E+000
endloop
endfacet
facet normal 0.000000E+000 -1.000000E+000 0.000000E+000
outer loop
vertex -1.041179E+001 -1.290000E+001 1.778958E+001
vertex -1.091167E+001 -1.290000E+001 1.592402E+001
vertex 0.000000E+000 -1.290000E+001 1.400000E+001
endloop
endfacet
facet normal 0.000000E+000 -1.000000E+000 0.000000E+000
outer loop
vertex -1.091167E+001 -1.290000E+001 1.592402E+001
vertex -1.108000E+001 -1.290000E+001 1.400000E+001
vertex 0.000000E+000 -1.290000E+001 1.400000E+001
endloop
endfacet
facet normal 0.000000E+000 -1.000000E+000 0.000000E+000
outer loop
vertex 0.000000E+000 -1.290000E+001 1.400000E+001
vertex -1.108000E+001 -1.290000E+001 1.400000E+001
vertex -1.091167E+001 -1.290000E+001 1.207598E+001
endloop
endfacet
facet normal 0.000000E+000 -1.000000E+000 0.000000E+000
outer loop
vertex -7.122087E+000 -1.290000E+001 2.248777E+001
vertex -8.487772E+000 -1.290000E+001 2.112209E+001
vertex 0.000000E+000 -1.290000E+001 1.400000E+001
endloop
endfacet
facet normal 0.000000E+000 -1.000000E+000 0.000000E+000
outer loop
vertex -8.487772E+000 -1.290000E+001 2.112209E+001
vertex -9.595561E+000 -1.290000E+001 1.954000E+001
vertex 0.000000E+000 -1.290000E+001 1.400000E+001
endloop
endfacet
facet normal 0.000000E+000 -1.000000E+000 0.000000E+000
outer loop
vertex 0.000000E+000 -1.290000E+001 1.400000E+001
vertex -9.595561E+000 -1.290000E+001 1.954000E+001
vertex -1.041179E+001 -1.290000E+001 1.778958E+001
endloop
endfacet
facet normal 0.000000E+000 -1.000000E+000 0.000000E+000
outer loop
vertex -1.924022E+000 -1.290000E+001 2.491167E+001
vertex -3.789583E+000 -1.290000E+001 2.441179E+001
vertex 0.000000E+000 -1.290000E+001 1.400000E+001
endloop
endfacet
facet normal 0.000000E+000 -1.000000E+000 0.000000E+000
outer loop
vertex -3.789583E+000 -1.290000E+001 2.441179E+001
vertex -5.540000E+000 -1.290000E+001 2.359556E+001
vertex 0.000000E+000 -1.290000E+001 1.400000E+001
endloop
endfacet
facet normal 0.000000E+000 -1.000000E+000 0.000000E+000
outer loop
vertex 0.000000E+000 -1.290000E+001 1.400000E+001
vertex -5.540000E+000 -1.290000E+001 2.359556E+001
vertex -7.122087E+000 -1.290000E+001 2.248777E+001
endloop
endfacet
facet normal 0.000000E+000 -1.000000E+000 0.000000E+000
outer loop
vertex 3.789583E+000 -1.290000E+001 2.441179E+001
vertex 1.924022E+000 -1.290000E+001 2.491167E+001
vertex 0.000000E+000 -1.290000E+001 1.400000E+001
endloop
endfacet
facet normal 0.000000E+000 -1.000000E+000 0.000000E+000
outer loop
vertex 1.924022E+000 -1.290000E+001 2.491167E+001
vertex 0.000000E+000 -1.290000E+001 2.508000E+001
vertex 0.000000E+000 -1.290000E+001 1.400000E+001
endloop
endfacet
facet normal 0.000000E+000 -1.000000E+000 0.000000E+000
outer loop
vertex 0.000000E+000 -1.290000E+001 1.400000E+001
vertex 0.000000E+000 -1.290000E+001 2.508000E+001
vertex -1.924022E+000 -1.290000E+001 2.491167E+001
endloop
endfacet
facet normal 0.000000E+000 -1.000000E+000 0.000000E+000
outer loop
vertex 8.487772E+000 -1.290000E+001 2.112209E+001
vertex 7.122087E+000 -1.290000E+001 2.248777E+001
vertex 0.000000E+000 -1.290000E+001 1.400000E+001
endloop
endfacet
facet normal 0.000000E+000 -1.000000E+000 0.000000E+000
outer loop
vertex 7.122087E+000 -1.290000E+001 2.248777E+001
vertex 5.540000E+000 -1.290000E+001 2.359556E+001
vertex 0.000000E+000 -1.290000E+001 1.400000E+001
endloop
endfacet
facet normal 0.000000E+000 -1.000000E+000 0.000000E+000
outer loop
vertex 0.000000E+000 -1.290000E+001 1.400000E+001
vertex 5.540000E+000 -1.290000E+001 2.359556E+001
vertex 3.789583E+000 -1.290000E+001 2.441179E+001
endloop
endfacet
facet normal 0.000000E+000 -1.000000E+000 0.000000E+000
outer loop
vertex 1.091167E+001 -1.290000E+001 1.592402E+001
vertex 1.041179E+001 -1.290000E+001 1.778958E+001
vertex 0.000000E+000 -1.290000E+001 1.400000E+001
endloop
endfacet
facet normal 0.000000E+000 -1.000000E+000 0.000000E+000
outer loop
vertex 1.041179E+001 -1.290000E+001 1.778958E+001
vertex 9.595561E+000 -1.290000E+001 1.954000E+001
vertex 0.000000E+000 -1.290000E+001 1.400000E+001
endloop
endfacet
facet normal 0.000000E+000 -1.000000E+000 0.000000E+000
outer loop
vertex 0.000000E+000 -1.290000E+001 1.400000E+001
vertex 9.595561E+000 -1.290000E+001 1.954000E+001
vertex 8.487772E+000 -1.290000E+001 2.112209E+001
endloop
endfacet
facet normal -9.961950E-001 0.000000E+000 8.715600E-002
outer loop
vertex 1.108000E+001 -2.000000E+001 1.400000E+001
vertex 1.108000E+001 -1.290000E+001 1.400000E+001
vertex 1.091167E+001 -2.000000E+001 1.207598E+001
endloop
endfacet
facet normal -9.961950E-001 0.000000E+000 8.715600E-002
outer loop
vertex 1.108000E+001 -1.290000E+001 1.400000E+001
vertex 1.091167E+001 -1.290000E+001 1.207598E+001
vertex 1.091167E+001 -2.000000E+001 1.207598E+001
endloop
endfacet
facet normal -9.659260E-001 0.000000E+000 2.588190E-001
outer loop
vertex 1.091167E+001 -2.000000E+001 1.207598E+001
vertex 1.091167E+001 -1.290000E+001 1.207598E+001
vertex 1.041179E+001 -2.000000E+001 1.021042E+001
endloop
endfacet
facet normal -9.659260E-001 0.000000E+000 2.588190E-001
outer loop
vertex 1.091167E+001 -1.290000E+001 1.207598E+001
vertex 1.041179E+001 -1.290000E+001 1.021042E+001
vertex 1.041179E+001 -2.000000E+001 1.021042E+001
endloop
endfacet
facet normal -9.063080E-001 0.000000E+000 4.226180E-001
outer loop
vertex 1.041179E+001 -2.000000E+001 1.021042E+001
vertex 1.041179E+001 -1.290000E+001 1.021042E+001
vertex 9.595561E+000 -2.000000E+001 8.460000E+000
endloop
endfacet
facet normal -9.063080E-001 0.000000E+000 4.226180E-001
outer loop
vertex 1.041179E+001 -1.290000E+001 1.021042E+001
vertex 9.595561E+000 -1.290000E+001 8.460000E+000
vertex 9.595561E+000 -2.000000E+001 8.460000E+000
endloop
endfacet
facet normal -8.191520E-001 0.000000E+000 5.735760E-001
outer loop
vertex 9.595561E+000 -2.000000E+001 8.460000E+000
vertex 9.595561E+000 -1.290000E+001 8.460000E+000
vertex 8.487772E+000 -2.000000E+001 6.877913E+000
endloop
endfacet
facet normal -8.191520E-001 0.000000E+000 5.735760E-001
outer loop
vertex 9.595561E+000 -1.290000E+001 8.460000E+000
vertex 8.487772E+000 -1.290000E+001 6.877913E+000
vertex 8.487772E+000 -2.000000E+001 6.877913E+000
endloop
endfacet
facet normal -7.071070E-001 0.000000E+000 7.071070E-001
outer loop
vertex 8.487772E+000 -2.000000E+001 6.877913E+000
vertex 8.487772E+000 -1.290000E+001 6.877913E+000
vertex 7.122087E+000 -2.000000E+001 5.512228E+000
endloop
endfacet
facet normal -7.071070E-001 0.000000E+000 7.071070E-001
outer loop
vertex 8.487772E+000 -1.290000E+001 6.877913E+000
vertex 7.122087E+000 -1.290000E+001 5.512228E+000
vertex 7.122087E+000 -2.000000E+001 5.512228E+000
endloop
endfacet
facet normal -5.735760E-001 0.000000E+000 8.191520E-001
outer loop
vertex 7.122087E+000 -2.000000E+001 5.512228E+000
vertex 7.122087E+000 -1.290000E+001 5.512228E+000
vertex 5.540000E+000 -2.000000E+001 4.404439E+000
endloop
endfacet
facet normal -5.735760E-001 0.000000E+000 8.191520E-001
outer loop
vertex 7.122087E+000 -1.290000E+001 5.512228E+000
vertex 5.540000E+000 -1.290000E+001 4.404439E+000
vertex 5.540000E+000 -2.000000E+001 4.404439E+000
endloop
endfacet
facet normal -4.226180E-001 0.000000E+000 9.063080E-001
outer loop
vertex 5.540000E+000 -2.000000E+001 4.404439E+000
vertex 5.540000E+000 -1.290000E+001 4.404439E+000
vertex 3.789583E+000 -2.000000E+001 3.588206E+000
endloop
endfacet
facet normal -4.226180E-001 0.000000E+000 9.063080E-001
outer loop
vertex 5.540000E+000 -1.290000E+001 4.404439E+000
vertex 3.789583E+000 -1.290000E+001 3.588206E+000
vertex 3.789583E+000 -2.000000E+001 3.588206E+000
endloop
endfacet
facet normal -2.588190E-001 0.000000E+000 9.659260E-001
outer loop
vertex 3.789583E+000 -2.000000E+001 3.588206E+000
vertex 3.789583E+000 -1.290000E+001 3.588206E+000
vertex 1.924022E+000 -2.000000E+001 3.088330E+000
endloop
endfacet
facet normal -2.588190E-001 0.000000E+000 9.659260E-001
outer loop
vertex 3.789583E+000 -1.290000E+001 3.588206E+000
vertex 1.924022E+000 -1.290000E+001 3.088330E+000
vertex 1.924022E+000 -2.000000E+001 3.088330E+000
endloop
endfacet
facet normal -8.715600E-002 0.000000E+000 9.961950E-001
outer loop
vertex 1.924022E+000 -2.000000E+001 3.088330E+000
vertex 1.924022E+000 -1.290000E+001 3.088330E+000
vertex 0.000000E+000 -2.000000E+001 2.920000E+000
endloop
endfacet
facet normal -8.715600E-002 0.000000E+000 9.961950E-001
outer loop
vertex 1.924022E+000 -1.290000E+001 3.088330E+000
vertex 0.000000E+000 -1.290000E+001 2.920000E+000
vertex 0.000000E+000 -2.000000E+001 2.920000E+000
endloop
endfacet
facet normal 8.715600E-002 0.000000E+000 9.961950E-001
outer loop
vertex 0.000000E+000 -2.000000E+001 2.920000E+000
vertex 0.000000E+000 -1.290000E+001 2.920000E+000
vertex -1.924022E+000 -2.000000E+001 3.088330E+000
endloop
endfacet
facet normal 8.715600E-002 0.000000E+000 9.961950E-001
outer loop
vertex 0.000000E+000 -1.290000E+001 2.920000E+000
vertex -1.924022E+000 -1.290000E+001 3.088330E+000
vertex -1.924022E+000 -2.000000E+001 3.088330E+000
endloop
endfacet
facet normal 2.588190E-001 0.000000E+000 9.659260E-001
outer loop
vertex -1.924022E+000 -2.000000E+001 3.088330E+000
vertex -1.924022E+000 -1.290000E+001 3.088330E+000
vertex -3.789583E+000 -2.000000E+001 3.588206E+000
endloop
endfacet
facet normal 2.588190E-001 0.000000E+000 9.659260E-001
outer loop
vertex -1.924022E+000 -1.290000E+001 3.088330E+000
vertex -3.789583E+000 -1.290000E+001 3.588206E+000
vertex -3.789583E+000 -2.000000E+001 3.588206E+000
endloop
endfacet
facet normal 4.226180E-001 0.000000E+000 9.063080E-001
outer loop
vertex -3.789583E+000 -2.000000E+001 3.588206E+000
vertex -3.789583E+000 -1.290000E+001 3.588206E+000
vertex -5.540000E+000 -2.000000E+001 4.404439E+000
endloop
endfacet
facet normal 4.226180E-001 0.000000E+000 9.063080E-001
outer loop
vertex -3.789583E+000 -1.290000E+001 3.588206E+000
vertex -5.540000E+000 -1.290000E+001 4.404439E+000
vertex -5.540000E+000 -2.000000E+001 4.404439E+000
endloop
endfacet
facet normal 5.735760E-001 0.000000E+000 8.191520E-001
outer loop
vertex -5.540000E+000 -2.000000E+001 4.404439E+000
vertex -5.540000E+000 -1.290000E+001 4.404439E+000
vertex -7.122087E+000 -2.000000E+001 5.512228E+000
endloop
endfacet
facet normal 5.735760E-001 0.000000E+000 8.191520E-001
outer loop
vertex -5.540000E+000 -1.290000E+001 4.404439E+000
vertex -7.122087E+000 -1.290000E+001 5.512228E+000
vertex -7.122087E+000 -2.000000E+001 5.512228E+000
endloop
endfacet
facet normal 7.071070E-001 0.000000E+000 7.071070E-001
outer loop
vertex -7.122087E+000 -2.000000E+001 5.512228E+000
vertex -7.122087E+000 -1.290000E+001 5.512228E+000
vertex -8.487772E+000 -2.000000E+001 6.877913E+000
endloop
endfacet
facet normal 7.071070E-001 0.000000E+000 7.071070E-001
outer loop
vertex -7.122087E+000 -1.290000E+001 5.512228E+000
vertex -8.487772E+000 -1.290000E+001 6.877913E+000
vertex -8.487772E+000 -2.000000E+001 6.877913E+000
endloop
endfacet
facet normal 8.191520E-001 0.000000E+000 5.735760E-001
outer loop
vertex -8.487772E+000 -2.000000E+001 6.877913E+000
vertex -8.487772E+000 -1.290000E+001 6.877913E+000
vertex -9.595561E+000 -2.000000E+001 8.460000E+000
endloop
endfacet
facet normal 8.191520E-001 0.000000E+000 5.735760E-001
outer loop
vertex -8.487772E+000 -1.290000E+001 6.877913E+000
vertex -9.595561E+000 -1.290000E+001 8.460000E+000
vertex -9.595561E+000 -2.000000E+001 8.460000E+000
endloop
endfacet
facet normal 9.063080E-001 0.000000E+000 4.226180E-001
outer loop
vertex -9.595561E+000 -2.000000E+001 8.460000E+000
vertex -9.595561E+000 -1.290000E+001 8.460000E+000
vertex -1.041179E+001 -2.000000E+001 1.021042E+001
endloop
endfacet
facet normal 9.063080E-001 0.000000E+000 4.226180E-001
outer loop
vertex -9.595561E+000 -1.290000E+001 8.460000E+000
vertex -1.041179E+001 -1.290000E+001 1.021042E+001
vertex -1.041179E+001 -2.000000E+001 1.021042E+001
endloop
endfacet
facet normal 9.659260E-001 0.000000E+000 2.588190E-001
outer loop
vertex -1.041179E+001 -2.000000E+001 1.021042E+001
vertex -1.041179E+001 -1.290000E+001 1.021042E+001
vertex -1.091167E+001 -2.000000E+001 1.207598E+001
endloop
endfacet
facet normal 9.659260E-001 0.000000E+000 2.588190E-001
outer loop
vertex -1.041179E+001 -1.290000E+001 1.021042E+001
vertex -1.091167E+001 -1.290000E+001 1.207598E+001
vertex -1.091167E+001 -2.000000E+001 1.207598E+001
endloop
endfacet
facet normal 9.961950E-001 0.000000E+000 8.715600E-002
outer loop
vertex -1.091167E+001 -2.000000E+001 1.207598E+001
vertex -1.091167E+001 -1.290000E+001 1.207598E+001
vertex -1.108000E+001 -2.000000E+001 1.400000E+001
endloop
endfacet
facet normal 9.961950E-001 0.000000E+000 8.715600E-002
outer loop
vertex -1.091167E+001 -1.290000E+001 1.207598E+001
vertex -1.108000E+001 -1.290000E+001 1.400000E+001
vertex -1.108000E+001 -2.000000E+001 1.400000E+001
endloop
endfacet
facet normal 9.961950E-001 0.000000E+000 -8.715600E-002
outer loop
vertex -1.108000E+001 -2.000000E+001 1.400000E+001
vertex -1.108000E+001 -1.290000E+001 1.400000E+001
vertex -1.091167E+001 -2.000000E+001 1.592402E+001
endloop
endfacet
facet normal 9.961950E-001 0.000000E+000 -8.715600E-002
outer loop
vertex -1.108000E+001 -1.290000E+001 1.400000E+001
vertex -1.091167E+001 -1.290000E+001 1.592402E+001
vertex -1.091167E+001 -2.000000E+001 1.592402E+001
endloop
endfacet
facet normal 9.659260E-001 0.000000E+000 -2.588190E-001
outer loop
vertex -1.091167E+001 -2.000000E+001 1.592402E+001
vertex -1.091167E+001 -1.290000E+001 1.592402E+001
vertex -1.041179E+001 -2.000000E+001 1.778958E+001
endloop
endfacet
facet normal 9.659260E-001 0.000000E+000 -2.588190E-001
outer loop
vertex -1.091167E+001 -1.290000E+001 1.592402E+001
vertex -1.041179E+001 -1.290000E+001 1.778958E+001
vertex -1.041179E+001 -2.000000E+001 1.778958E+001
endloop
endfacet
facet normal 9.063080E-001 0.000000E+000 -4.226180E-001
outer loop
vertex -1.041179E+001 -2.000000E+001 1.778958E+001
vertex -1.041179E+001 -1.290000E+001 1.778958E+001
vertex -9.595561E+000 -2.000000E+001 1.954000E+001
endloop
endfacet
facet normal 9.063080E-001 0.000000E+000 -4.226180E-001
outer loop
vertex -1.041179E+001 -1.290000E+001 1.778958E+001
vertex -9.595561E+000 -1.290000E+001 1.954000E+001
vertex -9.595561E+000 -2.000000E+001 1.954000E+001
endloop
endfacet
facet normal 8.191520E-001 0.000000E+000 -5.735760E-001
outer loop
vertex -9.595561E+000 -2.000000E+001 1.954000E+001
vertex -9.595561E+000 -1.290000E+001 1.954000E+001
vertex -8.487772E+000 -2.000000E+001 2.112209E+001
endloop
endfacet
facet normal 8.191520E-001 0.000000E+000 -5.735760E-001
outer loop
vertex -9.595561E+000 -1.290000E+001 1.954000E+001
vertex -8.487772E+000 -1.290000E+001 2.112209E+001
vertex -8.487772E+000 -2.000000E+001 2.112209E+001
endloop
endfacet
facet normal 7.071070E-001 0.000000E+000 -7.071070E-001
outer loop
vertex -8.487772E+000 -2.000000E+001 2.112209E+001
vertex -8.487772E+000 -1.290000E+001 2.112209E+001
vertex -7.122087E+000 -2.000000E+001 2.248777E+001
endloop
endfacet
facet normal 7.071070E-001 0.000000E+000 -7.071070E-001
outer loop
vertex -8.487772E+000 -1.290000E+001 2.112209E+001
vertex -7.122087E+000 -1.290000E+001 2.248777E+001
vertex -7.122087E+000 -2.000000E+001 2.248777E+001
endloop
endfacet
facet normal 5.735760E-001 0.000000E+000 -8.191520E-001
outer loop
vertex -7.122087E+000 -2.000000E+001 2.248777E+001
vertex -7.122087E+000 -1.290000E+001 2.248777E+001
vertex -5.540000E+000 -2.000000E+001 2.359556E+001
endloop
endfacet
facet normal 5.735760E-001 0.000000E+000 -8.191520E-001
outer loop
vertex -7.122087E+000 -1.290000E+001 2.248777E+001
vertex -5.540000E+000 -1.290000E+001 2.359556E+001
vertex -5.540000E+000 -2.000000E+001 2.359556E+001
endloop
endfacet
facet normal 4.226180E-001 0.000000E+000 -9.063080E-001
outer loop
vertex -5.540000E+000 -2.000000E+001 2.359556E+001
vertex -5.540000E+000 -1.290000E+001 2.359556E+001
vertex -3.789583E+000 -2.000000E+001 2.441179E+001
endloop
endfacet
facet normal 4.226180E-001 0.000000E+000 -9.063080E-001
outer loop
vertex -5.540000E+000 -1.290000E+001 2.359556E+001
vertex -3.789583E+000 -1.290000E+001 2.441179E+001
vertex -3.789583E+000 -2.000000E+001 2.441179E+001
endloop
endfacet
facet normal 2.588190E-001 0.000000E+000 -9.659260E-001
outer loop
vertex -3.789583E+000 -2.000000E+001 2.441179E+001
vertex -3.789583E+000 -1.290000E+001 2.441179E+001
vertex -1.924022E+000 -2.000000E+001 2.491167E+001
endloop
endfacet
facet normal 2.588190E-001 0.000000E+000 -9.659260E-001
outer loop
vertex -3.789583E+000 -1.290000E+001 2.441179E+001
vertex -1.924022E+000 -1.290000E+001 2.491167E+001
vertex -1.924022E+000 -2.000000E+001 2.491167E+001
endloop
endfacet
facet normal 8.715600E-002 0.000000E+000 -9.961950E-001
outer loop
vertex -1.924022E+000 -2.000000E+001 2.491167E+001
vertex -1.924022E+000 -1.290000E+001 2.491167E+001
vertex 0.000000E+000 -2.000000E+001 2.508000E+001
endloop
endfacet
facet normal 8.715600E-002 0.000000E+000 -9.961950E-001
outer loop
vertex -1.924022E+000 -1.290000E+001 2.491167E+001
vertex 0.000000E+000 -1.290000E+001 2.508000E+001
vertex 0.000000E+000 -2.000000E+001 2.508000E+001
endloop
endfacet
facet normal -8.715600E-002 0.000000E+000 -9.961950E-001
outer loop
vertex 0.000000E+000 -2.000000E+001 2.508000E+001
vertex 0.000000E+000 -1.290000E+001 2.508000E+001
vertex 1.924022E+000 -2.000000E+001 2.491167E+001
endloop
endfacet
facet normal -8.715600E-002 0.000000E+000 -9.961950E-001
outer loop
vertex 0.000000E+000 -1.290000E+001 2.508000E+001
vertex 1.924022E+000 -1.290000E+001 2.491167E+001
vertex 1.924022E+000 -2.000000E+001 2.491167E+001
endloop
endfacet
facet normal -2.588190E-001 0.000000E+000 -9.659260E-001
outer loop
vertex 1.924022E+000 -2.000000E+001 2.491167E+001
vertex 1.924022E+000 -1.290000E+001 2.491167E+001
vertex 3.789583E+000 -2.000000E+001 2.441179E+001
endloop
endfacet
facet normal -2.588190E-001 0.000000E+000 -9.659260E-001
outer loop
vertex 1.924022E+000 -1.290000E+001 2.491167E+001
vertex 3.789583E+000 -1.290000E+001 2.441179E+001
vertex 3.789583E+000 -2.000000E+001 2.441179E+001
endloop
endfacet
facet normal -4.226180E-001 0.000000E+000 -9.063080E-001
outer loop
vertex 3.789583E+000 -2.000000E+001 2.441179E+001
vertex 3.789583E+000 -1.290000E+001 2.441179E+001
vertex 5.540000E+000 -2.000000E+001 2.359556E+001
endloop
endfacet
facet normal -4.226180E-001 0.000000E+000 -9.063080E-001
outer loop
vertex 3.789583E+000 -1.290000E+001 2.441179E+001
vertex 5.540000E+000 -1.290000E+001 2.359556E+001
vertex 5.540000E+000 -2.000000E+001 2.359556E+001
endloop
endfacet
facet normal -5.735760E-001 0.000000E+000 -8.191520E-001
outer loop
vertex 5.540000E+000 -2.000000E+001 2.359556E+001
vertex 5.540000E+000 -1.290000E+001 2.359556E+001
vertex 7.122087E+000 -2.000000E+001 2.248777E+001
endloop
endfacet
facet normal -5.735760E-001 0.000000E+000 -8.191520E-001
outer loop
vertex 5.540000E+000 -1.290000E+001 2.359556E+001
vertex 7.122087E+000 -1.290000E+001 2.248777E+001
vertex 7.122087E+000 -2.000000E+001 2.248777E+001
endloop
endfacet
facet normal -7.071070E-001 0.000000E+000 -7.071070E-001
outer loop
vertex 7.122087E+000 -2.000000E+001 2.248777E+001
vertex 7.122087E+000 -1.290000E+001 2.248777E+001
vertex 8.487772E+000 -2.000000E+001 2.112209E+001
endloop
endfacet
facet normal -7.071070E-001 0.000000E+000 -7.071070E-001
outer loop
vertex 7.122087E+000 -1.290000E+001 2.248777E+001
vertex 8.487772E+000 -1.290000E+001 2.112209E+001
vertex 8.487772E+000 -2.000000E+001 2.112209E+001
endloop
endfacet
facet normal -8.191520E-001 0.000000E+000 -5.735760E-001
outer loop
vertex 8.487772E+000 -2.000000E+001 2.112209E+001
vertex 8.487772E+000 -1.290000E+001 2.112209E+001
vertex 9.595561E+000 -2.000000E+001 1.954000E+001
endloop
endfacet
facet normal -8.191520E-001 0.000000E+000 -5.735760E-001
outer loop
vertex 8.487772E+000 -1.290000E+001 2.112209E+001
vertex 9.595561E+000 -1.290000E+001 1.954000E+001
vertex 9.595561E+000 -2.000000E+001 1.954000E+001
endloop
endfacet
facet normal -9.063080E-001 0.000000E+000 -4.226180E-001
outer loop
vertex 9.595561E+000 -2.000000E+001 1.954000E+001
vertex 9.595561E+000 -1.290000E+001 1.954000E+001
vertex 1.041179E+001 -2.000000E+001 1.778958E+001
endloop
endfacet
facet normal -9.063080E-001 0.000000E+000 -4.226180E-001
outer loop
vertex 9.595561E+000 -1.290000E+001 1.954000E+001
vertex 1.041179E+001 -1.290000E+001 1.778958E+001
vertex 1.041179E+001 -2.000000E+001 1.778958E+001
endloop
endfacet
facet normal -9.659260E-001 0.000000E+000 -2.588190E-001
outer loop
vertex 1.041179E+001 -2.000000E+001 1.778958E+001
vertex 1.041179E+001 -1.290000E+001 1.778958E+001
vertex 1.091167E+001 -2.000000E+001 1.592402E+001
endloop
endfacet
facet normal -9.659260E-001 0.000000E+000 -2.588190E-001
outer loop
vertex 1.041179E+001 -1.290000E+001 1.778958E+001
vertex 1.091167E+001 -1.290000E+001 1.592402E+001
vertex 1.091167E+001 -2.000000E+001 1.592402E+001
endloop
endfacet
facet normal -9.961950E-001 0.000000E+000 -8.715600E-002
outer loop
vertex 1.091167E+001 -2.000000E+001 1.592402E+001
vertex 1.091167E+001 -1.290000E+001 1.592402E+001
vertex 1.108000E+001 -2.000000E+001 1.400000E+001
endloop
endfacet
facet normal -9.961950E-001 0.000000E+000 -8.715600E-002
outer loop
vertex 1.091167E+001 -1.290000E+001 1.592402E+001
vertex 1.108000E+001 -1.290000E+001 1.400000E+001
vertex 1.108000E+001 -2.000000E+001 1.400000E+001
endloop
endfacet
facet normal 0.000000E+000 -1.000000E+000 0.000000E+000
outer loop
vertex -5.540000E+000 -2.000000E+001 2.359556E+001
vertex -3.789583E+000 -2.000000E+001 2.441179E+001
vertex -1.700000E+001 -2.000000E+001 2.800000E+001
endloop
endfacet
facet normal 0.000000E+000 -1.000000E+000 0.000000E+000
outer loop
vertex 3.789583E+000 -2.000000E+001 2.441179E+001
vertex 5.540000E+000 -2.000000E+001 2.359556E+001
vertex 1.700000E+001 -2.000000E+001 2.800000E+001
endloop
endfacet
facet normal 0.000000E+000 -1.000000E+000 0.000000E+000
outer loop
vertex 5.540000E+000 -2.000000E+001 2.359556E+001
vertex 7.122087E+000 -2.000000E+001 2.248777E+001
vertex 1.700000E+001 -2.000000E+001 2.800000E+001
endloop
endfacet
facet normal 0.000000E+000 -1.000000E+000 0.000000E+000
outer loop
vertex 7.122087E+000 -2.000000E+001 2.248777E+001
vertex 8.487772E+000 -2.000000E+001 2.112209E+001
vertex 1.700000E+001 -2.000000E+001 2.800000E+001
endloop
endfacet
facet normal 0.000000E+000 -1.000000E+000 0.000000E+000
outer loop
vertex 8.487772E+000 -2.000000E+001 2.112209E+001
vertex 9.595561E+000 -2.000000E+001 1.954000E+001
vertex 1.700000E+001 -2.000000E+001 2.800000E+001
endloop
endfacet
facet normal 0.000000E+000 -1.000000E+000 0.000000E+000
outer loop
vertex 1.700000E+001 -2.000000E+001 2.800000E+001
vertex 9.595561E+000 -2.000000E+001 1.954000E+001
vertex 1.041179E+001 -2.000000E+001 1.778958E+001
endloop
endfacet
facet normal 0.000000E+000 -1.000000E+000 0.000000E+000
outer loop
vertex -7.122087E+000 -2.000000E+001 5.512228E+000
vertex -1.700000E+001 -2.000000E+001 0.000000E+000
vertex -5.540000E+000 -2.000000E+001 4.404439E+000
endloop
endfacet
facet normal 0.000000E+000 -1.000000E+000 0.000000E+000
outer loop
vertex -1.700000E+001 -2.000000E+001 0.000000E+000
vertex -3.789583E+000 -2.000000E+001 3.588206E+000
vertex -5.540000E+000 -2.000000E+001 4.404439E+000
endloop
endfacet
facet normal 0.000000E+000 -1.000000E+000 0.000000E+000
outer loop
vertex -5.540000E+000 -2.000000E+001 2.359556E+001
vertex -1.700000E+001 -2.000000E+001 2.800000E+001
vertex -7.122087E+000 -2.000000E+001 2.248777E+001
endloop
endfacet
facet normal 0.000000E+000 -1.000000E+000 0.000000E+000
outer loop
vertex -1.041179E+001 -2.000000E+001 1.778958E+001
vertex -9.595561E+000 -2.000000E+001 1.954000E+001
vertex -1.700000E+001 -2.000000E+001 2.800000E+001
endloop
endfacet
facet normal 0.000000E+000 -1.000000E+000 0.000000E+000
outer loop
vertex -9.595561E+000 -2.000000E+001 1.954000E+001
vertex -8.487772E+000 -2.000000E+001 2.112209E+001
vertex -1.700000E+001 -2.000000E+001 2.800000E+001
endloop
endfacet
facet normal 0.000000E+000 -1.000000E+000 0.000000E+000
outer loop
vertex -1.700000E+001 -2.000000E+001 2.800000E+001
vertex -8.487772E+000 -2.000000E+001 2.112209E+001
vertex -7.122087E+000 -2.000000E+001 2.248777E+001
endloop
endfacet
facet normal 0.000000E+000 -1.000000E+000 0.000000E+000
outer loop
vertex -3.789583E+000 -2.000000E+001 2.441179E+001
vertex -1.924022E+000 -2.000000E+001 2.491167E+001
vertex -1.700000E+001 -2.000000E+001 2.800000E+001
endloop
endfacet
facet normal 0.000000E+000 -1.000000E+000 0.000000E+000
outer loop
vertex -1.924022E+000 -2.000000E+001 2.491167E+001
vertex 0.000000E+000 -2.000000E+001 2.508000E+001
vertex -1.700000E+001 -2.000000E+001 2.800000E+001
endloop
endfacet
facet normal 0.000000E+000 -1.000000E+000 0.000000E+000
outer loop
vertex -1.700000E+001 -2.000000E+001 2.800000E+001
vertex 0.000000E+000 -2.000000E+001 2.508000E+001
vertex 1.700000E+001 -2.000000E+001 2.800000E+001
endloop
endfacet
facet normal 0.000000E+000 -1.000000E+000 0.000000E+000
outer loop
vertex 0.000000E+000 -2.000000E+001 2.508000E+001
vertex 1.924022E+000 -2.000000E+001 2.491167E+001
vertex 1.700000E+001 -2.000000E+001 2.800000E+001
endloop
endfacet
facet normal 0.000000E+000 -1.000000E+000 0.000000E+000
outer loop
vertex 1.700000E+001 -2.000000E+001 2.800000E+001
vertex 1.924022E+000 -2.000000E+001 2.491167E+001
vertex 3.789583E+000 -2.000000E+001 2.441179E+001
endloop
endfacet
facet normal 0.000000E+000 -1.000000E+000 0.000000E+000
outer loop
vertex 3.789583E+000 -2.000000E+001 3.588206E+000
vertex 1.700000E+001 -2.000000E+001 0.000000E+000
vertex 5.540000E+000 -2.000000E+001 4.404439E+000
endloop
endfacet
facet normal 0.000000E+000 -1.000000E+000 0.000000E+000
outer loop
vertex 1.700000E+001 -2.000000E+001 0.000000E+000
vertex 7.122087E+000 -2.000000E+001 5.512228E+000
vertex 5.540000E+000 -2.000000E+001 4.404439E+000
endloop
endfacet
facet normal 0.000000E+000 -1.000000E+000 0.000000E+000
outer loop
vertex 3.789583E+000 -2.000000E+001 3.588206E+000
vertex 1.924022E+000 -2.000000E+001 3.088330E+000
vertex 1.700000E+001 -2.000000E+001 0.000000E+000
endloop
endfacet
facet normal 0.000000E+000 -1.000000E+000 0.000000E+000
outer loop
vertex 1.924022E+000 -2.000000E+001 3.088330E+000
vertex 0.000000E+000 -2.000000E+001 2.920000E+000
vertex 1.700000E+001 -2.000000E+001 0.000000E+000
endloop
endfacet
facet normal 0.000000E+000 -1.000000E+000 0.000000E+000
outer loop
vertex 1.700000E+001 -2.000000E+001 0.000000E+000
vertex 0.000000E+000 -2.000000E+001 2.920000E+000
vertex -1.700000E+001 -2.000000E+001 0.000000E+000
endloop
endfacet
facet normal 0.000000E+000 -1.000000E+000 0.000000E+000
outer loop
vertex 0.000000E+000 -2.000000E+001 2.920000E+000
vertex -1.924022E+000 -2.000000E+001 3.088330E+000
vertex -1.700000E+001 -2.000000E+001 0.000000E+000
endloop
endfacet
facet normal 0.000000E+000 -1.000000E+000 0.000000E+000
outer loop
vertex -1.700000E+001 -2.000000E+001 0.000000E+000
vertex -1.924022E+000 -2.000000E+001 3.088330E+000
vertex -3.789583E+000 -2.000000E+001 3.588206E+000
endloop
endfacet
facet normal 0.000000E+000 -1.000000E+000 0.000000E+000
outer loop
vertex -7.122087E+000 -2.000000E+001 5.512228E+000
vertex -8.487772E+000 -2.000000E+001 6.877913E+000
vertex -1.700000E+001 -2.000000E+001 0.000000E+000
endloop
endfacet
facet normal 0.000000E+000 -1.000000E+000 0.000000E+000
outer loop
vertex -8.487772E+000 -2.000000E+001 6.877913E+000
vertex -9.595561E+000 -2.000000E+001 8.460000E+000
vertex -1.700000E+001 -2.000000E+001 0.000000E+000
endloop
endfacet
facet normal 0.000000E+000 -1.000000E+000 0.000000E+000
outer loop
vertex -1.700000E+001 -2.000000E+001 0.000000E+000
vertex -9.595561E+000 -2.000000E+001 8.460000E+000
vertex -1.041179E+001 -2.000000E+001 1.021042E+001
endloop
endfacet
facet normal 0.000000E+000 -1.000000E+000 0.000000E+000
outer loop
vertex 1.041179E+001 -2.000000E+001 1.778958E+001
vertex 1.091167E+001 -2.000000E+001 1.592402E+001
vertex 1.700000E+001 -2.000000E+001 2.800000E+001
endloop
endfacet
facet normal 0.000000E+000 -1.000000E+000 0.000000E+000
outer loop
vertex 1.091167E+001 -2.000000E+001 1.592402E+001
vertex 1.108000E+001 -2.000000E+001 1.400000E+001
vertex 1.700000E+001 -2.000000E+001 2.800000E+001
endloop
endfacet
facet normal 0.000000E+000 -1.000000E+000 0.000000E+000
outer loop
vertex 1.700000E+001 -2.000000E+001 2.800000E+001
vertex 1.108000E+001 -2.000000E+001 1.400000E+001
vertex 1.700000E+001 -2.000000E+001 0.000000E+000
endloop
endfacet
facet normal 0.000000E+000 -1.000000E+000 0.000000E+000
outer loop
vertex 1.108000E+001 -2.000000E+001 1.400000E+001
vertex 1.091167E+001 -2.000000E+001 1.207598E+001
vertex 1.700000E+001 -2.000000E+001 0.000000E+000
endloop
endfacet
facet normal 0.000000E+000 -1.000000E+000 0.000000E+000
outer loop
vertex 1.700000E+001 -2.000000E+001 0.000000E+000
vertex 1.091167E+001 -2.000000E+001 1.207598E+001
vertex 1.041179E+001 -2.000000E+001 1.021042E+001
endloop
endfacet
facet normal 0.000000E+000 -1.000000E+000 0.000000E+000
outer loop
vertex -1.041179E+001 -2.000000E+001 1.021042E+001
vertex -1.091167E+001 -2.000000E+001 1.207598E+001
vertex -1.700000E+001 -2.000000E+001 0.000000E+000
endloop
endfacet
facet normal 0.000000E+000 -1.000000E+000 0.000000E+000
outer loop
vertex -1.091167E+001 -2.000000E+001 1.207598E+001
vertex -1.108000E+001 -2.000000E+001 1.400000E+001
vertex -1.700000E+001 -2.000000E+001 0.000000E+000
endloop
endfacet
facet normal 0.000000E+000 -1.000000E+000 0.000000E+000
outer loop
vertex -1.700000E+001 -2.000000E+001 0.000000E+000
vertex -1.108000E+001 -2.000000E+001 1.400000E+001
vertex -1.700000E+001 -2.000000E+001 2.800000E+001
endloop
endfacet
facet normal 0.000000E+000 -1.000000E+000 0.000000E+000
outer loop
vertex -1.108000E+001 -2.000000E+001 1.400000E+001
vertex -1.091167E+001 -2.000000E+001 1.592402E+001
vertex -1.700000E+001 -2.000000E+001 2.800000E+001
endloop
endfacet
facet normal 0.000000E+000 -1.000000E+000 0.000000E+000
outer loop
vertex -1.700000E+001 -2.000000E+001 2.800000E+001
vertex -1.091167E+001 -2.000000E+001 1.592402E+001
vertex -1.041179E+001 -2.000000E+001 1.778958E+001
endloop
endfacet
facet normal 0.000000E+000 -1.000000E+000 0.000000E+000
outer loop
vertex 1.041179E+001 -2.000000E+001 1.021042E+001
vertex 9.595561E+000 -2.000000E+001 8.460000E+000
vertex 1.700000E+001 -2.000000E+001 0.000000E+000
endloop
endfacet
facet normal 0.000000E+000 -1.000000E+000 0.000000E+000
outer loop
vertex 9.595561E+000 -2.000000E+001 8.460000E+000
vertex 8.487772E+000 -2.000000E+001 6.877913E+000
vertex 1.700000E+001 -2.000000E+001 0.000000E+000
endloop
endfacet
facet normal 0.000000E+000 -1.000000E+000 0.000000E+000
outer loop
vertex 1.700000E+001 -2.000000E+001 0.000000E+000
vertex 8.487772E+000 -2.000000E+001 6.877913E+000
vertex 7.122087E+000 -2.000000E+001 5.512228E+000
endloop
endfacet
facet normal -1.000000E+000 0.000000E+000 0.000000E+000
outer loop
vertex -1.700000E+001 2.000000E+001 0.000000E+000
vertex -1.700000E+001 -2.000000E+001 0.000000E+000
vertex -1.700000E+001 2.000000E+001 2.800000E+001
endloop
endfacet
facet normal -1.000000E+000 0.000000E+000 0.000000E+000
outer loop
vertex -1.700000E+001 -2.000000E+001 0.000000E+000
vertex -1.700000E+001 -2.000000E+001 2.800000E+001
vertex -1.700000E+001 2.000000E+001 2.800000E+001
endloop
endfacet
facet normal 1.000000E+000 0.000000E+000 0.000000E+000
outer loop
vertex 1.700000E+001 -2.000000E+001 0.000000E+000
vertex 1.700000E+001 2.000000E+001 0.000000E+000
vertex 1.700000E+001 -2.000000E+001 2.800000E+001
endloop
endfacet
facet normal 1.000000E+000 0.000000E+000 0.000000E+000
outer loop
vertex 1.700000E+001 2.000000E+001 0.000000E+000
vertex 1.700000E+001 2.000000E+001 2.800000E+001
vertex 1.700000E+001 -2.000000E+001 2.800000E+001
endloop
endfacet
facet normal 0.000000E+000 1.000000E+000 0.000000E+000
outer loop
vertex 1.700000E+001 2.000000E+001 0.000000E+000
vertex -1.700000E+001 2.000000E+001 0.000000E+000
vertex 1.700000E+001 2.000000E+001 2.800000E+001
endloop
endfacet
facet normal 0.000000E+000 1.000000E+000 0.000000E+000
outer loop
vertex -1.700000E+001 2.000000E+001 0.000000E+000
vertex -1.700000E+001 2.000000E+001 2.800000E+001
vertex 1.700000E+001 2.000000E+001 2.800000E+001
endloop
endfacet
facet normal 0.000000E+000 0.000000E+000 -1.000000E+000
outer loop
vertex 1.700000E+001 2.000000E+001 0.000000E+000
vertex 1.700000E+001 -2.000000E+001 0.000000E+000
vertex -1.700000E+001 2.000000E+001 0.000000E+000
endloop
endfacet
facet normal 0.000000E+000 0.000000E+000 -1.000000E+000
outer loop
vertex 1.700000E+001 -2.000000E+001 0.000000E+000
vertex -1.700000E+001 -2.000000E+001 0.000000E+000
vertex -1.700000E+001 2.000000E+001 0.000000E+000
endloop
endfacet
facet normal 0.000000E+000 0.000000E+000 1.000000E+000
outer loop
vertex 1.091167E+001 1.075978E+000 2.800000E+001
vertex 1.700000E+001 -2.000000E+001 2.800000E+001
vertex 1.108000E+001 3.000000E+000 2.800000E+001
endloop
endfacet
facet normal 0.000000E+000 0.000000E+000 1.000000E+000
outer loop
vertex 1.700000E+001 -2.000000E+001 2.800000E+001
vertex 1.700000E+001 2.000000E+001 2.800000E+001
vertex 1.108000E+001 3.000000E+000 2.800000E+001
endloop
endfacet
facet normal 0.000000E+000 0.000000E+000 1.000000E+000
outer loop
vertex -7.122087E+000 1.148777E+001 2.800000E+001
vertex -5.540000E+000 1.259556E+001 2.800000E+001
vertex -1.700000E+001 2.000000E+001 2.800000E+001
endloop
endfacet
facet normal 0.000000E+000 0.000000E+000 1.000000E+000
outer loop
vertex -5.540000E+000 1.259556E+001 2.800000E+001
vertex -3.789583E+000 1.341179E+001 2.800000E+001
vertex -1.700000E+001 2.000000E+001 2.800000E+001
endloop
endfacet
facet normal 0.000000E+000 0.000000E+000 1.000000E+000
outer loop
vertex -7.122087E+000 -5.487772E+000 2.800000E+001
vertex -1.700000E+001 -2.000000E+001 2.800000E+001
vertex -5.540000E+000 -6.595561E+000 2.800000E+001
endloop
endfacet
facet normal 0.000000E+000 0.000000E+000 1.000000E+000
outer loop
vertex -1.700000E+001 -2.000000E+001 2.800000E+001
vertex -3.789583E+000 -7.411794E+000 2.800000E+001
vertex -5.540000E+000 -6.595561E+000 2.800000E+001
endloop
endfacet
facet normal 0.000000E+000 0.000000E+000 1.000000E+000
outer loop
vertex -3.789583E+000 1.341179E+001 2.800000E+001
vertex -1.924022E+000 1.391167E+001 2.800000E+001
vertex -1.700000E+001 2.000000E+001 2.800000E+001
endloop
endfacet
facet normal 0.000000E+000 0.000000E+000 1.000000E+000
outer loop
vertex -1.924022E+000 1.391167E+001 2.800000E+001
vertex 0.000000E+000 1.408000E+001 2.800000E+001
vertex -1.700000E+001 2.000000E+001 2.800000E+001
endloop
endfacet
facet normal 0.000000E+000 0.000000E+000 1.000000E+000
outer loop
vertex -1.700000E+001 2.000000E+001 2.800000E+001
vertex 0.000000E+000 1.408000E+001 2.800000E+001
vertex 1.700000E+001 2.000000E+001 2.800000E+001
endloop
endfacet
facet normal 0.000000E+000 0.000000E+000 1.000000E+000
outer loop
vertex 0.000000E+000 1.408000E+001 2.800000E+001
vertex 1.924022E+000 1.391167E+001 2.800000E+001
vertex 1.700000E+001 2.000000E+001 2.800000E+001
endloop
endfacet
facet normal 0.000000E+000 0.000000E+000 1.000000E+000
outer loop
vertex 1.924022E+000 1.391167E+001 2.800000E+001
vertex 3.789583E+000 1.341179E+001 2.800000E+001
vertex 1.700000E+001 2.000000E+001 2.800000E+001
endloop
endfacet
facet normal 0.000000E+000 0.000000E+000 1.000000E+000
outer loop
vertex 1.700000E+001 2.000000E+001 2.800000E+001
vertex 3.789583E+000 1.341179E+001 2.800000E+001
vertex 5.540000E+000 1.259556E+001 2.800000E+001
endloop
endfacet
facet normal 0.000000E+000 0.000000E+000 1.000000E+000
outer loop
vertex 5.540000E+000 1.259556E+001 2.800000E+001
vertex 7.122087E+000 1.148777E+001 2.800000E+001
vertex 1.700000E+001 2.000000E+001 2.800000E+001
endloop
endfacet
facet normal 0.000000E+000 0.000000E+000 1.000000E+000
outer loop
vertex 7.122087E+000 1.148777E+001 2.800000E+001
vertex 8.487772E+000 1.012209E+001 2.800000E+001
vertex 1.700000E+001 2.000000E+001 2.800000E+001
endloop
endfacet
facet normal 0.000000E+000 0.000000E+000 1.000000E+000
outer loop
vertex 1.700000E+001 2.000000E+001 2.800000E+001
vertex 8.487772E+000 1.012209E+001 2.800000E+001
vertex 9.595561E+000 8.540000E+000 2.800000E+001
endloop
endfacet
facet normal 0.000000E+000 0.000000E+000 1.000000E+000
outer loop
vertex 9.595561E+000 8.540000E+000 2.800000E+001
vertex 1.041179E+001 6.789583E+000 2.800000E+001
vertex 1.700000E+001 2.000000E+001 2.800000E+001
endloop
endfacet
facet normal 0.000000E+000 0.000000E+000 1.000000E+000
outer loop
vertex 1.041179E+001 6.789583E+000 2.800000E+001
vertex 1.091167E+001 4.924022E+000 2.800000E+001
vertex 1.700000E+001 2.000000E+001 2.800000E+001
endloop
endfacet
facet normal 0.000000E+000 0.000000E+000 1.000000E+000
outer loop
vertex 1.700000E+001 2.000000E+001 2.800000E+001
vertex 1.091167E+001 4.924022E+000 2.800000E+001
vertex 1.108000E+001 3.000000E+000 2.800000E+001
endloop
endfacet
facet normal 0.000000E+000 0.000000E+000 1.000000E+000
outer loop
vertex 1.091167E+001 1.075978E+000 2.800000E+001
vertex 1.041179E+001 -7.895830E-001 2.800000E+001
vertex 1.700000E+001 -2.000000E+001 2.800000E+001
endloop
endfacet
facet normal 0.000000E+000 0.000000E+000 1.000000E+000
outer loop
vertex 1.041179E+001 -7.895830E-001 2.800000E+001
vertex 9.595561E+000 -2.540000E+000 2.800000E+001
vertex 1.700000E+001 -2.000000E+001 2.800000E+001
endloop
endfacet
facet normal 0.000000E+000 0.000000E+000 1.000000E+000
outer loop
vertex 1.700000E+001 -2.000000E+001 2.800000E+001
vertex 9.595561E+000 -2.540000E+000 2.800000E+001
vertex 8.487772E+000 -4.122087E+000 2.800000E+001
endloop
endfacet
facet normal 0.000000E+000 0.000000E+000 1.000000E+000
outer loop
vertex 8.487772E+000 -4.122087E+000 2.800000E+001
vertex 7.122087E+000 -5.487772E+000 2.800000E+001
vertex 1.700000E+001 -2.000000E+001 2.800000E+001
endloop
endfacet
facet normal 0.000000E+000 0.000000E+000 1.000000E+000
outer loop
vertex 7.122087E+000 -5.487772E+000 2.800000E+001
vertex 5.540000E+000 -6.595561E+000 2.800000E+001
vertex 1.700000E+001 -2.000000E+001 2.800000E+001
endloop
endfacet
facet normal 0.000000E+000 0.000000E+000 1.000000E+000
outer loop
vertex 1.700000E+001 -2.000000E+001 2.800000E+001
vertex 5.540000E+000 -6.595561E+000 2.800000E+001
vertex 3.789583E+000 -7.411794E+000 2.800000E+001
endloop
endfacet
facet normal 0.000000E+000 0.000000E+000 1.000000E+000
outer loop
vertex -7.122087E+000 -5.487772E+000 2.800000E+001
vertex -8.487772E+000 -4.122087E+000 2.800000E+001
vertex -1.700000E+001 -2.000000E+001 2.800000E+001
endloop
endfacet
facet normal 0.000000E+000 0.000000E+000 1.000000E+000
outer loop
vertex -8.487772E+000 -4.122087E+000 2.800000E+001
vertex -9.595561E+000 -2.540000E+000 2.800000E+001
vertex -1.700000E+001 -2.000000E+001 2.800000E+001
endloop
endfacet
facet normal 0.000000E+000 0.000000E+000 1.000000E+000
outer loop
vertex -1.700000E+001 -2.000000E+001 2.800000E+001
vertex -9.595561E+000 -2.540000E+000 2.800000E+001
vertex -1.041179E+001 -7.895830E-001 2.800000E+001
endloop
endfacet
facet normal 0.000000E+000 0.000000E+000 1.000000E+000
outer loop
vertex 3.789583E+000 -7.411794E+000 2.800000E+001
vertex 1.924022E+000 -7.911670E+000 2.800000E+001
vertex 1.700000E+001 -2.000000E+001 2.800000E+001
endloop
endfacet
facet normal 0.000000E+000 0.000000E+000 1.000000E+000
outer loop
vertex 1.924022E+000 -7.911670E+000 2.800000E+001
vertex 0.000000E+000 -8.080000E+000 2.800000E+001
vertex 1.700000E+001 -2.000000E+001 2.800000E+001
endloop
endfacet
facet normal 0.000000E+000 0.000000E+000 1.000000E+000
outer loop
vertex 1.700000E+001 -2.000000E+001 2.800000E+001
vertex 0.000000E+000 -8.080000E+000 2.800000E+001
vertex -1.700000E+001 -2.000000E+001 2.800000E+001
endloop
endfacet
facet normal 0.000000E+000 0.000000E+000 1.000000E+000
outer loop
vertex 0.000000E+000 -8.080000E+000 2.800000E+001
vertex -1.924022E+000 -7.911670E+000 2.800000E+001
vertex -1.700000E+001 -2.000000E+001 2.800000E+001
endloop
endfacet
facet normal 0.000000E+000 0.000000E+000 1.000000E+000
outer loop
vertex -1.700000E+001 -2.000000E+001 2.800000E+001
vertex -1.924022E+000 -7.911670E+000 2.800000E+001
vertex -3.789583E+000 -7.411794E+000 2.800000E+001
endloop
endfacet
facet normal 0.000000E+000 0.000000E+000 1.000000E+000
outer loop
vertex -1.041179E+001 -7.895830E-001 2.800000E+001
vertex -1.091167E+001 1.075978E+000 2.800000E+001
vertex -1.700000E+001 -2.000000E+001 2.800000E+001
endloop
endfacet
facet normal 0.000000E+000 0.000000E+000 1.000000E+000
outer loop
vertex -1.091167E+001 1.075978E+000 2.800000E+001
vertex -1.108000E+001 3.000000E+000 2.800000E+001
vertex -1.700000E+001 -2.000000E+001 2.800000E+001
endloop
endfacet
facet normal 0.000000E+000 0.000000E+000 1.000000E+000
outer loop
vertex -1.700000E+001 -2.000000E+001 2.800000E+001
vertex -1.108000E+001 3.000000E+000 2.800000E+001
vertex -1.700000E+001 2.000000E+001 2.800000E+001
endloop
endfacet
facet normal 0.000000E+000 0.000000E+000 1.000000E+000
outer loop
vertex -1.108000E+001 3.000000E+000 2.800000E+001
vertex -1.091167E+001 4.924022E+000 2.800000E+001
vertex -1.700000E+001 2.000000E+001 2.800000E+001
endloop
endfacet
facet normal 0.000000E+000 0.000000E+000 1.000000E+000
outer loop
vertex -1.700000E+001 2.000000E+001 2.800000E+001
vertex -1.091167E+001 4.924022E+000 2.800000E+001
vertex -1.041179E+001 6.789583E+000 2.800000E+001
endloop
endfacet
facet normal 0.000000E+000 0.000000E+000 1.000000E+000
outer loop
vertex -1.041179E+001 6.789583E+000 2.800000E+001
vertex -9.595561E+000 8.540000E+000 2.800000E+001
vertex -1.700000E+001 2.000000E+001 2.800000E+001
endloop
endfacet
facet normal 0.000000E+000 0.000000E+000 1.000000E+000
outer loop
vertex -9.595561E+000 8.540000E+000 2.800000E+001
vertex -8.487772E+000 1.012209E+001 2.800000E+001
vertex -1.700000E+001 2.000000E+001 2.800000E+001
endloop
endfacet
facet normal 0.000000E+000 0.000000E+000 1.000000E+000
outer loop
vertex -1.700000E+001 2.000000E+001 2.800000E+001
vertex -8.487772E+000 1.012209E+001 2.800000E+001
vertex -7.122087E+000 1.148777E+001 2.800000E+001
endloop
endfacet
facet normal -9.961950E-001 8.715600E-002 0.000000E+000
outer loop
vertex 1.108000E+001 3.000000E+000 2.800000E+001
vertex 1.108000E+001 3.000000E+000 2.090000E+001
vertex 1.091167E+001 1.075978E+000 2.800000E+001
endloop
endfacet
facet normal -9.961950E-001 8.715600E-002 0.000000E+000
outer loop
vertex 1.108000E+001 3.000000E+000 2.090000E+001
vertex 1.091167E+001 1.075978E+000 2.090000E+001
vertex 1.091167E+001 1.075978E+000 2.800000E+001
endloop
endfacet
facet normal -9.659260E-001 2.588190E-001 0.000000E+000
outer loop
vertex 1.091167E+001 1.075978E+000 2.800000E+001
vertex 1.091167E+001 1.075978E+000 2.090000E+001
vertex 1.041179E+001 -7.895830E-001 2.800000E+001
endloop
endfacet
facet normal -9.659260E-001 2.588190E-001 0.000000E+000
outer loop
vertex 1.091167E+001 1.075978E+000 2.090000E+001
vertex 1.041179E+001 -7.895830E-001 2.090000E+001
vertex 1.041179E+001 -7.895830E-001 2.800000E+001
endloop
endfacet
facet normal -9.063080E-001 4.226180E-001 0.000000E+000
outer loop
vertex 1.041179E+001 -7.895830E-001 2.800000E+001
vertex 1.041179E+001 -7.895830E-001 2.090000E+001
vertex 9.595561E+000 -2.540000E+000 2.800000E+001
endloop
endfacet
facet normal -9.063080E-001 4.226180E-001 0.000000E+000
outer loop
vertex 1.041179E+001 -7.895830E-001 2.090000E+001
vertex 9.595561E+000 -2.540000E+000 2.090000E+001
vertex 9.595561E+000 -2.540000E+000 2.800000E+001
endloop
endfacet
facet normal -8.191520E-001 5.735760E-001 0.000000E+000
outer loop
vertex 9.595561E+000 -2.540000E+000 2.800000E+001
vertex 9.595561E+000 -2.540000E+000 2.090000E+001
vertex 8.487772E+000 -4.122087E+000 2.800000E+001
endloop
endfacet
facet normal -8.191520E-001 5.735760E-001 0.000000E+000
outer loop
vertex 9.595561E+000 -2.540000E+000 2.090000E+001
vertex 8.487772E+000 -4.122087E+000 2.090000E+001
vertex 8.487772E+000 -4.122087E+000 2.800000E+001
endloop
endfacet
facet normal -7.071070E-001 7.071070E-001 0.000000E+000
outer loop
vertex 8.487772E+000 -4.122087E+000 2.800000E+001
vertex 8.487772E+000 -4.122087E+000 2.090000E+001
vertex 7.122087E+000 -5.487772E+000 2.800000E+001
endloop
endfacet
facet normal -7.071070E-001 7.071070E-001 0.000000E+000
outer loop
vertex 8.487772E+000 -4.122087E+000 2.090000E+001
vertex 7.122087E+000 -5.487772E+000 2.090000E+001
vertex 7.122087E+000 -5.487772E+000 2.800000E+001
endloop
endfacet
facet normal -5.735760E-001 8.191520E-001 0.000000E+000
outer loop
vertex 7.122087E+000 -5.487772E+000 2.800000E+001
vertex 7.122087E+000 -5.487772E+000 2.090000E+001
vertex 5.540000E+000 -6.595561E+000 2.800000E+001
endloop
endfacet
facet normal -5.735760E-001 8.191520E-001 0.000000E+000
outer loop
vertex 7.122087E+000 -5.487772E+000 2.090000E+001
vertex 5.540000E+000 -6.595561E+000 2.090000E+001
vertex 5.540000E+000 -6.595561E+000 2.800000E+001
endloop
endfacet
facet normal -4.226180E-001 9.063080E-001 0.000000E+000
outer loop
vertex 5.540000E+000 -6.595561E+000 2.800000E+001
vertex 5.540000E+000 -6.595561E+000 2.090000E+001
vertex 3.789583E+000 -7.411794E+000 2.800000E+001
endloop
endfacet
facet normal -4.226180E-001 9.063080E-001 0.000000E+000
outer loop
vertex 5.540000E+000 -6.595561E+000 2.090000E+001
vertex 3.789583E+000 -7.411794E+000 2.090000E+001
vertex 3.789583E+000 -7.411794E+000 2.800000E+001
endloop
endfacet
facet normal -2.588190E-001 9.659260E-001 0.000000E+000
outer loop
vertex 3.789583E+000 -7.411794E+000 2.800000E+001
vertex 3.789583E+000 -7.411794E+000 2.090000E+001
vertex 1.924022E+000 -7.911670E+000 2.800000E+001
endloop
endfacet
facet normal -2.588190E-001 9.659260E-001 0.000000E+000
outer loop
vertex 3.789583E+000 -7.411794E+000 2.090000E+001
vertex 1.924022E+000 -7.911670E+000 2.090000E+001
vertex 1.924022E+000 -7.911670E+000 2.800000E+001
endloop
endfacet
facet normal -8.715600E-002 9.961950E-001 0.000000E+000
outer loop
vertex 1.924022E+000 -7.911670E+000 2.800000E+001
vertex 1.924022E+000 -7.911670E+000 2.090000E+001
vertex 0.000000E+000 -8.080000E+000 2.800000E+001
endloop
endfacet
facet normal -8.715600E-002 9.961950E-001 0.000000E+000
outer loop
vertex 1.924022E+000 -7.911670E+000 2.090000E+001
vertex 0.000000E+000 -8.080000E+000 2.090000E+001
vertex 0.000000E+000 -8.080000E+000 2.800000E+001
endloop
endfacet
facet normal 8.715600E-002 9.961950E-001 0.000000E+000
outer loop
vertex 0.000000E+000 -8.080000E+000 2.800000E+001
vertex 0.000000E+000 -8.080000E+000 2.090000E+001
vertex -1.924022E+000 -7.911670E+000 2.800000E+001
endloop
endfacet
facet normal 8.715600E-002 9.961950E-001 0.000000E+000
outer loop
vertex 0.000000E+000 -8.080000E+000 2.090000E+001
vertex -1.924022E+000 -7.911670E+000 2.090000E+001
vertex -1.924022E+000 -7.911670E+000 2.800000E+001
endloop
endfacet
facet normal 2.588190E-001 9.659260E-001 0.000000E+000
outer loop
vertex -1.924022E+000 -7.911670E+000 2.800000E+001
vertex -1.924022E+000 -7.911670E+000 2.090000E+001
vertex -3.789583E+000 -7.411794E+000 2.800000E+001
endloop
endfacet
facet normal 2.588190E-001 9.659260E-001 0.000000E+000
outer loop
vertex -1.924022E+000 -7.911670E+000 2.090000E+001
vertex -3.789583E+000 -7.411794E+000 2.090000E+001
vertex -3.789583E+000 -7.411794E+000 2.800000E+001
endloop
endfacet
facet normal 4.226180E-001 9.063080E-001 0.000000E+000
outer loop
vertex -3.789583E+000 -7.411794E+000 2.800000E+001
vertex -3.789583E+000 -7.411794E+000 2.090000E+001
vertex -5.540000E+000 -6.595561E+000 2.800000E+001
endloop
endfacet
facet normal 4.226180E-001 9.063080E-001 0.000000E+000
outer loop
vertex -3.789583E+000 -7.411794E+000 2.090000E+001
vertex -5.540000E+000 -6.595561E+000 2.090000E+001
vertex -5.540000E+000 -6.595561E+000 2.800000E+001
endloop
endfacet
facet normal 5.735760E-001 8.191520E-001 0.000000E+000
outer loop
vertex -5.540000E+000 -6.595561E+000 2.800000E+001
vertex -5.540000E+000 -6.595561E+000 2.090000E+001
vertex -7.122087E+000 -5.487772E+000 2.800000E+001
endloop
endfacet
facet normal 5.735760E-001 8.191520E-001 0.000000E+000
outer loop
vertex -5.540000E+000 -6.595561E+000 2.090000E+001
vertex -7.122087E+000 -5.487772E+000 2.090000E+001
vertex -7.122087E+000 -5.487772E+000 2.800000E+001
endloop
endfacet
facet normal 7.071070E-001 7.071070E-001 0.000000E+000
outer loop
vertex -7.122087E+000 -5.487772E+000 2.800000E+001
vertex -7.122087E+000 -5.487772E+000 2.090000E+001
vertex -8.487772E+000 -4.122087E+000 2.800000E+001
endloop
endfacet
facet normal 7.071070E-001 7.071070E-001 0.000000E+000
outer loop
vertex -7.122087E+000 -5.487772E+000 2.090000E+001
vertex -8.487772E+000 -4.122087E+000 2.090000E+001
vertex -8.487772E+000 -4.122087E+000 2.800000E+001
endloop
endfacet
facet normal 8.191520E-001 5.735760E-001 0.000000E+000
outer loop
vertex -8.487772E+000 -4.122087E+000 2.800000E+001
vertex -8.487772E+000 -4.122087E+000 2.090000E+001
vertex -9.595561E+000 -2.540000E+000 2.800000E+001
endloop
endfacet
facet normal 8.191520E-001 5.735760E-001 0.000000E+000
outer loop
vertex -8.487772E+000 -4.122087E+000 2.090000E+001
vertex -9.595561E+000 -2.540000E+000 2.090000E+001
vertex -9.595561E+000 -2.540000E+000 2.800000E+001
endloop
endfacet
facet normal 9.063080E-001 4.226180E-001 0.000000E+000
outer loop
vertex -9.595561E+000 -2.540000E+000 2.800000E+001
vertex -9.595561E+000 -2.540000E+000 2.090000E+001
vertex -1.041179E+001 -7.895830E-001 2.800000E+001
endloop
endfacet
facet normal 9.063080E-001 4.226180E-001 0.000000E+000
outer loop
vertex -9.595561E+000 -2.540000E+000 2.090000E+001
vertex -1.041179E+001 -7.895830E-001 2.090000E+001
vertex -1.041179E+001 -7.895830E-001 2.800000E+001
endloop
endfacet
facet normal 9.659260E-001 2.588190E-001 0.000000E+000
outer loop
vertex -1.041179E+001 -7.895830E-001 2.800000E+001
vertex -1.041179E+001 -7.895830E-001 2.090000E+001
vertex -1.091167E+001 1.075978E+000 2.800000E+001
endloop
endfacet
facet normal 9.659260E-001 2.588190E-001 0.000000E+000
outer loop
vertex -1.041179E+001 -7.895830E-001 2.090000E+001
vertex -1.091167E+001 1.075978E+000 2.090000E+001
vertex -1.091167E+001 1.075978E+000 2.800000E+001
endloop
endfacet
facet normal 9.961950E-001 8.715600E-002 0.000000E+000
outer loop
vertex -1.091167E+001 1.075978E+000 2.800000E+001
vertex -1.091167E+001 1.075978E+000 2.090000E+001
vertex -1.108000E+001 3.000000E+000 2.800000E+001
endloop
endfacet
facet normal 9.961950E-001 8.715600E-002 0.000000E+000
outer loop
vertex -1.091167E+001 1.075978E+000 2.090000E+001
vertex -1.108000E+001 3.000000E+000 2.090000E+001
vertex -1.108000E+001 3.000000E+000 2.800000E+001
endloop
endfacet
facet normal 9.961950E-001 -8.715600E-002 0.000000E+000
outer loop
vertex -1.108000E+001 3.000000E+000 2.800000E+001
vertex -1.108000E+001 3.000000E+000 2.090000E+001
vertex -1.091167E+001 4.924022E+000 2.800000E+001
endloop
endfacet
facet normal 9.961950E-001 -8.715600E-002 0.000000E+000
outer loop
vertex -1.108000E+001 3.000000E+000 2.090000E+001
vertex -1.091167E+001 4.924022E+000 2.090000E+001
vertex -1.091167E+001 4.924022E+000 2.800000E+001
endloop
endfacet
facet normal 9.659260E-001 -2.588190E-001 0.000000E+000
outer loop
vertex -1.091167E+001 4.924022E+000 2.800000E+001
vertex -1.091167E+001 4.924022E+000 2.090000E+001
vertex -1.041179E+001 6.789583E+000 2.800000E+001
endloop
endfacet
facet normal 9.659260E-001 -2.588190E-001 0.000000E+000
outer loop
vertex -1.091167E+001 4.924022E+000 2.090000E+001
vertex -1.041179E+001 6.789583E+000 2.090000E+001
vertex -1.041179E+001 6.789583E+000 2.800000E+001
endloop
endfacet
facet normal 9.063080E-001 -4.226180E-001 0.000000E+000
outer loop
vertex -1.041179E+001 6.789583E+000 2.800000E+001
vertex -1.041179E+001 6.789583E+000 2.090000E+001
vertex -9.595561E+000 8.540000E+000 2.800000E+001
endloop
endfacet
facet normal 9.063080E-001 -4.226180E-001 0.000000E+000
outer loop
vertex -1.041179E+001 6.789583E+000 2.090000E+001
vertex -9.595561E+000 8.540000E+000 2.090000E+001
vertex -9.595561E+000 8.540000E+000 2.800000E+001
endloop
endfacet
facet normal 8.191520E-001 -5.735760E-001 0.000000E+000
outer loop
vertex -9.595561E+000 8.540000E+000 2.800000E+001
vertex -9.595561E+000 8.540000E+000 2.090000E+001
vertex -8.487772E+000 1.012209E+001 2.800000E+001
endloop
endfacet
facet normal 8.191520E-001 -5.735760E-001 0.000000E+000
outer loop
vertex -9.595561E+000 8.540000E+000 2.090000E+001
vertex -8.487772E+000 1.012209E+001 2.090000E+001
vertex -8.487772E+000 1.012209E+001 2.800000E+001
endloop
endfacet
facet normal 7.071070E-001 -7.071070E-001 0.000000E+000
outer loop
vertex -8.487772E+000 1.012209E+001 2.800000E+001
vertex -8.487772E+000 1.012209E+001 2.090000E+001
vertex -7.122087E+000 1.148777E+001 2.800000E+001
endloop
endfacet
facet normal 7.071070E-001 -7.071070E-001 0.000000E+000
outer loop
vertex -8.487772E+000 1.012209E+001 2.090000E+001
vertex -7.122087E+000 1.148777E+001 2.090000E+001
vertex -7.122087E+000 1.148777E+001 2.800000E+001
endloop
endfacet
facet normal 5.735760E-001 -8.191520E-001 0.000000E+000
outer loop
vertex -7.122087E+000 1.148777E+001 2.800000E+001
vertex -7.122087E+000 1.148777E+001 2.090000E+001
vertex -5.540000E+000 1.259556E+001 2.800000E+001
endloop
endfacet
facet normal 5.735760E-001 -8.191520E-001 0.000000E+000
outer loop
vertex -7.122087E+000 1.148777E+001 2.090000E+001
vertex -5.540000E+000 1.259556E+001 2.090000E+001
vertex -5.540000E+000 1.259556E+001 2.800000E+001
endloop
endfacet
facet normal 4.226180E-001 -9.063080E-001 0.000000E+000
outer loop
vertex -5.540000E+000 1.259556E+001 2.800000E+001
vertex -5.540000E+000 1.259556E+001 2.090000E+001
vertex -3.789583E+000 1.341179E+001 2.800000E+001
endloop
endfacet
facet normal 4.226180E-001 -9.063080E-001 0.000000E+000
outer loop
vertex -5.540000E+000 1.259556E+001 2.090000E+001
vertex -3.789583E+000 1.341179E+001 2.090000E+001
vertex -3.789583E+000 1.341179E+001 2.800000E+001
endloop
endfacet
facet normal 2.588190E-001 -9.659260E-001 0.000000E+000
outer loop
vertex -3.789583E+000 1.341179E+001 2.800000E+001
vertex -3.789583E+000 1.341179E+001 2.090000E+001
vertex -1.924022E+000 1.391167E+001 2.800000E+001
endloop
endfacet
facet normal 2.588190E-001 -9.659260E-001 0.000000E+000
outer loop
vertex -3.789583E+000 1.341179E+001 2.090000E+001
vertex -1.924022E+000 1.391167E+001 2.090000E+001
vertex -1.924022E+000 1.391167E+001 2.800000E+001
endloop
endfacet
facet normal 8.715600E-002 -9.961950E-001 0.000000E+000
outer loop
vertex -1.924022E+000 1.391167E+001 2.800000E+001
vertex -1.924022E+000 1.391167E+001 2.090000E+001
vertex 0.000000E+000 1.408000E+001 2.800000E+001
endloop
endfacet
facet normal 8.715600E-002 -9.961950E-001 0.000000E+000
outer loop
vertex -1.924022E+000 1.391167E+001 2.090000E+001
vertex 0.000000E+000 1.408000E+001 2.090000E+001
vertex 0.000000E+000 1.408000E+001 2.800000E+001
endloop
endfacet
facet normal -8.715600E-002 -9.961950E-001 0.000000E+000
outer loop
vertex 0.000000E+000 1.408000E+001 2.800000E+001
vertex 0.000000E+000 1.408000E+001 2.090000E+001
vertex 1.924022E+000 1.391167E+001 2.800000E+001
endloop
endfacet
facet normal -8.715600E-002 -9.961950E-001 0.000000E+000
outer loop
vertex 0.000000E+000 1.408000E+001 2.090000E+001
vertex 1.924022E+000 1.391167E+001 2.090000E+001
vertex 1.924022E+000 1.391167E+001 2.800000E+001
endloop
endfacet
facet normal -2.588190E-001 -9.659260E-001 0.000000E+000
outer loop
vertex 1.924022E+000 1.391167E+001 2.800000E+001
vertex 1.924022E+000 1.391167E+001 2.090000E+001
vertex 3.789583E+000 1.341179E+001 2.800000E+001
endloop
endfacet
facet normal -2.588190E-001 -9.659260E-001 0.000000E+000
outer loop
vertex 1.924022E+000 1.391167E+001 2.090000E+001
vertex 3.789583E+000 1.341179E+001 2.090000E+001
vertex 3.789583E+000 1.341179E+001 2.800000E+001
endloop
endfacet
facet normal -4.226180E-001 -9.063080E-001 0.000000E+000
outer loop
vertex 3.789583E+000 1.341179E+001 2.800000E+001
vertex 3.789583E+000 1.341179E+001 2.090000E+001
vertex 5.540000E+000 1.259556E+001 2.800000E+001
endloop
endfacet
facet normal -4.226180E-001 -9.063080E-001 0.000000E+000
outer loop
vertex 3.789583E+000 1.341179E+001 2.090000E+001
vertex 5.540000E+000 1.259556E+001 2.090000E+001
vertex 5.540000E+000 1.259556E+001 2.800000E+001
endloop
endfacet
facet normal -5.735760E-001 -8.191520E-001 0.000000E+000
outer loop
vertex 5.540000E+000 1.259556E+001 2.800000E+001
vertex 5.540000E+000 1.259556E+001 2.090000E+001
vertex 7.122087E+000 1.148777E+001 2.800000E+001
endloop
endfacet
facet normal -5.735760E-001 -8.191520E-001 0.000000E+000
outer loop
vertex 5.540000E+000 1.259556E+001 2.090000E+001
vertex 7.122087E+000 1.148777E+001 2.090000E+001
vertex 7.122087E+000 1.148777E+001 2.800000E+001
endloop
endfacet
facet normal -7.071070E-001 -7.071070E-001 0.000000E+000
outer loop
vertex 7.122087E+000 1.148777E+001 2.800000E+001
vertex 7.122087E+000 1.148777E+001 2.090000E+001
vertex 8.487772E+000 1.012209E+001 2.800000E+001
endloop
endfacet
facet normal -7.071070E-001 -7.071070E-001 0.000000E+000
outer loop
vertex 7.122087E+000 1.148777E+001 2.090000E+001
vertex 8.487772E+000 1.012209E+001 2.090000E+001
vertex 8.487772E+000 1.012209E+001 2.800000E+001
endloop
endfacet
facet normal -8.191520E-001 -5.735760E-001 0.000000E+000
outer loop
vertex 8.487772E+000 1.012209E+001 2.800000E+001
vertex 8.487772E+000 1.012209E+001 2.090000E+001
vertex 9.595561E+000 8.540000E+000 2.800000E+001
endloop
endfacet
facet normal -8.191520E-001 -5.735760E-001 0.000000E+000
outer loop
vertex 8.487772E+000 1.012209E+001 2.090000E+001
vertex 9.595561E+000 8.540000E+000 2.090000E+001
vertex 9.595561E+000 8.540000E+000 2.800000E+001
endloop
endfacet
facet normal -9.063080E-001 -4.226180E-001 0.000000E+000
outer loop
vertex 9.595561E+000 8.540000E+000 2.800000E+001
vertex 9.595561E+000 8.540000E+000 2.090000E+001
vertex 1.041179E+001 6.789583E+000 2.800000E+001
endloop
endfacet
facet normal -9.063080E-001 -4.226180E-001 0.000000E+000
outer loop
vertex 9.595561E+000 8.540000E+000 2.090000E+001
vertex 1.041179E+001 6.789583E+000 2.090000E+001
vertex 1.041179E+001 6.789583E+000 2.800000E+001
endloop
endfacet
facet normal -9.659260E-001 -2.588190E-001 0.000000E+000
outer loop
vertex 1.041179E+001 6.789583E+000 2.800000E+001
vertex 1.041179E+001 6.789583E+000 2.090000E+001
vertex 1.091167E+001 4.924022E+000 2.800000E+001
endloop
endfacet
facet normal -9.659260E-001 -2.588190E-001 0.000000E+000
outer loop
vertex 1.041179E+001 6.789583E+000 2.090000E+001
vertex 1.091167E+001 4.924022E+000 2.090000E+001
vertex 1.091167E+001 4.924022E+000 2.800000E+001
endloop
endfacet
facet normal -9.961950E-001 -8.715600E-002 0.000000E+000
outer loop
vertex 1.091167E+001 4.924022E+000 2.800000E+001
vertex 1.091167E+001 4.924022E+000 2.090000E+001
vertex 1.108000E+001 3.000000E+000 2.800000E+001
endloop
endfacet
facet normal -9.961950E-001 -8.715600E-002 0.000000E+000
outer loop
vertex 1.091167E+001 4.924022E+000 2.090000E+001
vertex 1.108000E+001 3.000000E+000 2.090000E+001
vertex 1.108000E+001 3.000000E+000 2.800000E+001
endloop
endfacet
facet normal 0.000000E+000 0.000000E+000 1.000000E+000
outer loop
vertex 1.041179E+001 -7.895830E-001 2.090000E+001
vertex 1.091167E+001 1.075978E+000 2.090000E+001
vertex 0.000000E+000 3.000000E+000 2.090000E+001
endloop
endfacet
facet normal 0.000000E+000 0.000000E+000 1.000000E+000
outer loop
vertex 1.091167E+001 1.075978E+000 2.090000E+001
vertex 1.108000E+001 3.000000E+000 2.090000E+001
vertex 0.000000E+000 3.000000E+000 2.090000E+001
endloop
endfacet
facet normal 0.000000E+000 0.000000E+000 1.000000E+000
outer loop
vertex 0.000000E+000 3.000000E+000 2.090000E+001
vertex 1.108000E+001 3.000000E+000 2.090000E+001
vertex 1.091167E+001 4.924022E+000 2.090000E+001
endloop
endfacet
facet normal 0.000000E+000 0.000000E+000 1.000000E+000
outer loop
vertex 7.122087E+000 -5.487772E+000 2.090000E+001
vertex 8.487772E+000 -4.122087E+000 2.090000E+001
vertex 0.000000E+000 3.000000E+000 2.090000E+001
endloop
endfacet
facet normal 0.000000E+000 0.000000E+000 1.000000E+000
outer loop
vertex 8.487772E+000 -4.122087E+000 2.090000E+001
vertex 9.595561E+000 -2.540000E+000 2.090000E+001
vertex 0.000000E+000 3.000000E+000 2.090000E+001
endloop
endfacet
facet normal 0.000000E+000 0.000000E+000 1.000000E+000
outer loop
vertex 0.000000E+000 3.000000E+000 2.090000E+001
vertex 9.595561E+000 -2.540000E+000 2.090000E+001
vertex 1.041179E+001 -7.895830E-001 2.090000E+001
endloop
endfacet
facet normal 0.000000E+000 0.000000E+000 1.000000E+000
outer loop
vertex 1.924022E+000 -7.911670E+000 2.090000E+001
vertex 3.789583E+000 -7.411794E+000 2.090000E+001
vertex 0.000000E+000 3.000000E+000 2.090000E+001
endloop
endfacet
facet normal 0.000000E+000 0.000000E+000 1.000000E+000
outer loop
vertex 3.789583E+000 -7.411794E+000 2.090000E+001
vertex 5.540000E+000 -6.595561E+000 2.090000E+001
vertex 0.000000E+000 3.000000E+000 2.090000E+001
endloop
endfacet
facet normal 0.000000E+000 0.000000E+000 1.000000E+000
outer loop
vertex 0.000000E+000 3.000000E+000 2.090000E+001
vertex 5.540000E+000 -6.595561E+000 2.090000E+001
vertex 7.122087E+000 -5.487772E+000 2.090000E+001
endloop
endfacet
facet normal 0.000000E+000 0.000000E+000 1.000000E+000
outer loop
vertex -3.789583E+000 -7.411794E+000 2.090000E+001
vertex -1.924022E+000 -7.911670E+000 2.090000E+001
vertex 0.000000E+000 3.000000E+000 2.090000E+001
endloop
endfacet
facet normal 0.000000E+000 0.000000E+000 1.000000E+000
outer loop
vertex -1.924022E+000 -7.911670E+000 2.090000E+001
vertex 0.000000E+000 -8.080000E+000 2.090000E+001
vertex 0.000000E+000 3.000000E+000 2.090000E+001
endloop
endfacet
facet normal 0.000000E+000 0.000000E+000 1.000000E+000
outer loop
vertex 0.000000E+000 3.000000E+000 2.090000E+001
vertex 0.000000E+000 -8.080000E+000 2.090000E+001
vertex 1.924022E+000 -7.911670E+000 2.090000E+001
endloop
endfacet
facet normal 0.000000E+000 0.000000E+000 1.000000E+000
outer loop
vertex -8.487772E+000 -4.122087E+000 2.090000E+001
vertex -7.122087E+000 -5.487772E+000 2.090000E+001
vertex 0.000000E+000 3.000000E+000 2.090000E+001
endloop
endfacet
facet normal 0.000000E+000 0.000000E+000 1.000000E+000
outer loop
vertex -7.122087E+000 -5.487772E+000 2.090000E+001
vertex -5.540000E+000 -6.595561E+000 2.090000E+001
vertex 0.000000E+000 3.000000E+000 2.090000E+001
endloop
endfacet
facet normal 0.000000E+000 0.000000E+000 1.000000E+000
outer loop
vertex 0.000000E+000 3.000000E+000 2.090000E+001
vertex -5.540000E+000 -6.595561E+000 2.090000E+001
vertex -3.789583E+000 -7.411794E+000 2.090000E+001
endloop
endfacet
facet normal 0.000000E+000 0.000000E+000 1.000000E+000
outer loop
vertex -1.091167E+001 1.075978E+000 2.090000E+001
vertex -1.041179E+001 -7.895830E-001 2.090000E+001
vertex 0.000000E+000 3.000000E+000 2.090000E+001
endloop
endfacet
facet normal 0.000000E+000 0.000000E+000 1.000000E+000
outer loop
vertex -1.041179E+001 -7.895830E-001 2.090000E+001
vertex -9.595561E+000 -2.540000E+000 2.090000E+001
vertex 0.000000E+000 3.000000E+000 2.090000E+001
endloop
endfacet
facet normal 0.000000E+000 0.000000E+000 1.000000E+000
outer loop
vertex 0.000000E+000 3.000000E+000 2.090000E+001
vertex -9.595561E+000 -2.540000E+000 2.090000E+001
vertex -8.487772E+000 -4.122087E+000 2.090000E+001
endloop
endfacet
facet normal 0.000000E+000 0.000000E+000 1.000000E+000
outer loop
vertex -1.041179E+001 6.789583E+000 2.090000E+001
vertex -1.091167E+001 4.924022E+000 2.090000E+001
vertex 0.000000E+000 3.000000E+000 2.090000E+001
endloop
endfacet
facet normal 0.000000E+000 0.000000E+000 1.000000E+000
outer loop
vertex -1.091167E+001 4.924022E+000 2.090000E+001
vertex -1.108000E+001 3.000000E+000 2.090000E+001
vertex 0.000000E+000 3.000000E+000 2.090000E+001
endloop
endfacet
facet normal 0.000000E+000 0.000000E+000 1.000000E+000
outer loop
vertex 0.000000E+000 3.000000E+000 2.090000E+001
vertex -1.108000E+001 3.000000E+000 2.090000E+001
vertex -1.091167E+001 1.075978E+000 2.090000E+001
endloop
endfacet
facet normal 0.000000E+000 0.000000E+000 1.000000E+000
outer loop
vertex -7.122087E+000 1.148777E+001 2.090000E+001
vertex -8.487772E+000 1.012209E+001 2.090000E+001
vertex 0.000000E+000 3.000000E+000 2.090000E+001
endloop
endfacet
facet normal 0.000000E+000 0.000000E+000 1.000000E+000
outer loop
vertex -8.487772E+000 1.012209E+001 2.090000E+001
vertex -9.595561E+000 8.540000E+000 2.090000E+001
vertex 0.000000E+000 3.000000E+000 2.090000E+001
endloop
endfacet
facet normal 0.000000E+000 0.000000E+000 1.000000E+000
outer loop
vertex 0.000000E+000 3.000000E+000 2.090000E+001
vertex -9.595561E+000 8.540000E+000 2.090000E+001
vertex -1.041179E+001 6.789583E+000 2.090000E+001
endloop
endfacet
facet normal 0.000000E+000 0.000000E+000 1.000000E+000
outer loop
vertex -1.924022E+000 1.391167E+001 2.090000E+001
vertex -3.789583E+000 1.341179E+001 2.090000E+001
vertex 0.000000E+000 3.000000E+000 2.090000E+001
endloop
endfacet
facet normal 0.000000E+000 0.000000E+000 1.000000E+000
outer loop
vertex -3.789583E+000 1.341179E+001 2.090000E+001
vertex -5.540000E+000 1.259556E+001 2.090000E+001
vertex 0.000000E+000 3.000000E+000 2.090000E+001
endloop
endfacet
facet normal 0.000000E+000 0.000000E+000 1.000000E+000
outer loop
vertex 0.000000E+000 3.000000E+000 2.090000E+001
vertex -5.540000E+000 1.259556E+001 2.090000E+001
vertex -7.122087E+000 1.148777E+001 2.090000E+001
endloop
endfacet
facet normal 0.000000E+000 0.000000E+000 1.000000E+000
outer loop
vertex 3.789583E+000 1.341179E+001 2.090000E+001
vertex 1.924022E+000 1.391167E+001 2.090000E+001
vertex 0.000000E+000 3.000000E+000 2.090000E+001
endloop
endfacet
facet normal 0.000000E+000 0.000000E+000 1.000000E+000
outer loop
vertex 1.924022E+000 1.391167E+001 2.090000E+001
vertex 0.000000E+000 1.408000E+001 2.090000E+001
vertex 0.000000E+000 3.000000E+000 2.090000E+001
endloop
endfacet
facet normal 0.000000E+000 0.000000E+000 1.000000E+000
outer loop
vertex 0.000000E+000 3.000000E+000 2.090000E+001
vertex 0.000000E+000 1.408000E+001 2.090000E+001
vertex -1.924022E+000 1.391167E+001 2.090000E+001
endloop
endfacet
facet normal 0.000000E+000 0.000000E+000 1.000000E+000
outer loop
vertex 8.487772E+000 1.012209E+001 2.090000E+001
vertex 7.122087E+000 1.148777E+001 2.090000E+001
vertex 0.000000E+000 3.000000E+000 2.090000E+001
endloop
endfacet
facet normal 0.000000E+000 0.000000E+000 1.000000E+000
outer loop
vertex 7.122087E+000 1.148777E+001 2.090000E+001
vertex 5.540000E+000 1.259556E+001 2.090000E+001
vertex 0.000000E+000 3.000000E+000 2.090000E+001
endloop
endfacet
facet normal 0.000000E+000 0.000000E+000 1.000000E+000
outer loop
vertex 0.000000E+000 3.000000E+000 2.090000E+001
vertex 5.540000E+000 1.259556E+001 2.090000E+001
vertex 3.789583E+000 1.341179E+001 2.090000E+001
endloop
endfacet
facet normal 0.000000E+000 0.000000E+000 1.000000E+000
outer loop
vertex 1.091167E+001 4.924022E+000 2.090000E+001
vertex 1.041179E+001 6.789583E+000 2.090000E+001
vertex 0.000000E+000 3.000000E+000 2.090000E+001
endloop
endfacet
facet normal 0.000000E+000 0.000000E+000 1.000000E+000
outer loop
vertex 1.041179E+001 6.789583E+000 2.090000E+001
vertex 9.595561E+000 8.540000E+000 2.090000E+001
vertex 0.000000E+000 3.000000E+000 2.090000E+001
endloop
endfacet
facet normal 0.000000E+000 0.000000E+000 1.000000E+000
outer loop
vertex 0.000000E+000 3.000000E+000 2.090000E+001
vertex 9.595561E+000 8.540000E+000 2.090000E+001
vertex 8.487772E+000 1.012209E+001 2.090000E+001
endloop
endfacet
endsolid
